<?xml version="1.0" encoding="utf-8"?>
<!-- Generator: Adobe Illustrator 20.0.0, SVG Export Plug-In . SVG Version: 6.00 Build 0)  -->
<svg version="1.1" id="Layer_1" xmlns="http://www.w3.org/2000/svg" xmlns:xlink="http://www.w3.org/1999/xlink" x="0px" y="0px"
	 viewBox="0 0 284.8 85.8" style="enable-background:new 0 0 284.8 85.8;" xml:space="preserve">
<style type="text/css">
	.st0{fill-rule:evenodd;clip-rule:evenodd;fill:#ADADAD;}
</style>
<g>
	<g>
		<path class="st0" d="M176.7,67.1c-16.5,12.2-40.5,18.7-61.2,18.7c-29,0-55-10.7-74.8-28.5c-1.5-1.4-0.2-3.3,1.7-2.2
			c21.3,12.4,47.6,19.8,74.8,19.8c18.3,0,38.5-3.8,57.1-11.7C177.1,62.1,179.5,65.1,176.7,67.1z"/>
		<path class="st0" d="M183.6,59.3c-2.1-2.7-14-1.3-19.3-0.6c-1.6,0.2-1.9-1.2-0.4-2.2c9.5-6.7,25-4.7,26.8-2.5
			c1.8,2.2-0.5,17.8-9.4,25.2c-1.4,1.1-2.7,0.5-2.1-1C181.2,73.1,185.7,62,183.6,59.3z"/>
	</g>
	<g>
		<path class="st0" d="M164.6,9.4V2.9c0-1,0.7-1.6,1.6-1.6l29,0c0.9,0,1.7,0.7,1.7,1.6l0,5.5c0,0.9-0.8,2.1-2.2,4.1l-15,21.4
			c5.6-0.1,11.5,0.7,16.5,3.5c1.1,0.6,1.4,1.6,1.5,2.5v6.9c0,1-1,2.1-2.1,1.5c-8.9-4.7-20.8-5.2-30.6,0.1c-1,0.5-2.1-0.5-2.1-1.5
			v-6.6c0-1,0-2.8,1.1-4.4L181.5,11l-15.1,0C165.4,11,164.7,10.3,164.6,9.4z"/>
		<path class="st0" d="M58.9,49.8h-8.8c-0.8-0.1-1.5-0.7-1.6-1.5l0-45.2c0-0.9,0.8-1.6,1.7-1.6l8.2,0c0.9,0,1.5,0.7,1.6,1.5v5.9h0.2
			c2.1-5.7,6.2-8.4,11.6-8.4c5.5,0,9,2.7,11.4,8.4c2.1-5.7,7-8.4,12.2-8.4c3.7,0,7.7,1.5,10.2,5c2.8,3.8,2.2,9.3,2.2,14.2l0,28.6
			c0,0.9-0.8,1.6-1.7,1.6h-8.8c-0.9-0.1-1.6-0.8-1.6-1.6l0-24c0-1.9,0.2-6.7-0.2-8.5c-0.7-3-2.6-3.9-5.2-3.9c-2.1,0-4.4,1.4-5.3,3.7
			c-0.9,2.3-0.8,6.1-0.8,8.7v24c0,0.9-0.8,1.6-1.7,1.6h-8.8c-0.9-0.1-1.6-0.8-1.6-1.6l0-24c0-5,0.8-12.5-5.4-12.5
			c-6.3,0-6.1,7.2-6.1,12.5l0,24C60.6,49,59.9,49.8,58.9,49.8z"/>
		<path class="st0" d="M221.9,0.4C235,0.4,242,11.7,242,26c0,13.8-7.8,24.8-20.2,24.8C209,50.7,202,39.5,202,25.5
			C202,11.4,209.1,0.4,221.9,0.4z M222,9.7c-6.5,0-6.9,8.9-6.9,14.4c0,5.5-0.1,17.3,6.8,17.3c6.8,0,7.2-9.5,7.2-15.3
			c0-3.8-0.2-8.4-1.3-12C226.7,10.9,224.8,9.7,222,9.7z"/>
		<path class="st0" d="M259,49.8h-8.8c-0.9-0.1-1.6-0.8-1.6-1.6l0-45.3c0.1-0.8,0.8-1.5,1.7-1.5l8.2,0c0.8,0,1.4,0.6,1.6,1.3v6.9
			h0.2c2.5-6.2,5.9-9.1,12-9.1c3.9,0,7.8,1.4,10.3,5.3c2.3,3.6,2.3,9.7,2.3,14.1v28.5c-0.1,0.8-0.8,1.4-1.7,1.4h-8.8
			c-0.8-0.1-1.5-0.7-1.6-1.4V23.8c0-5,0.6-12.2-5.5-12.2c-2.1,0-4.1,1.4-5.1,3.6c-1.2,2.8-1.4,5.5-1.4,8.6v24.4
			C260.7,49,260,49.8,259,49.8z"/>
		<path class="st0" d="M141.5,28.1c0,3.4,0.1,6.3-1.6,9.4c-1.4,2.5-3.6,4-6.1,4c-3.4,0-5.4-2.6-5.4-6.4c0-7.5,6.7-8.9,13.1-8.9V28.1
			z M150.4,49.6c-0.6,0.5-1.4,0.6-2.1,0.2c-2.9-2.4-3.5-3.6-5.1-5.9c-4.8,4.9-8.3,6.4-14.5,6.4c-7.4,0-13.2-4.6-13.2-13.7
			c0-7.2,3.9-12,9.4-14.4c4.8-2.1,11.5-2.5,16.6-3.1V18c0-2.1,0.2-4.6-1.1-6.4c-1.1-1.6-3.1-2.3-4.9-2.3c-3.4,0-6.4,1.7-7.1,5.3
			c-0.2,0.8-0.7,1.6-1.5,1.6l-8.5-0.9c-0.7-0.2-1.5-0.7-1.3-1.8C119,3.1,128.4,0,136.8,0c4.3,0,9.9,1.1,13.3,4.4
			c4.3,4,3.9,9.4,3.9,15.2v13.7c0,4.1,1.7,5.9,3.3,8.2c0.6,0.8,0.7,1.8,0,2.3C155.4,45.3,152.2,48.1,150.4,49.6L150.4,49.6z"/>
		<path class="st0" d="M26,28.1c0,3.4,0.1,6.3-1.6,9.4c-1.4,2.5-3.6,4-6.1,4c-3.4,0-5.4-2.6-5.4-6.4c0-7.5,6.7-8.9,13.1-8.9V28.1z
			 M34.9,49.6c-0.6,0.5-1.4,0.6-2.1,0.2c-2.9-2.4-3.5-3.6-5.1-5.9c-4.8,4.9-8.3,6.4-14.5,6.4C5.8,50.4,0,45.8,0,36.6
			c0-7.2,3.9-12,9.4-14.4c4.8-2.1,11.5-2.5,16.6-3.1V18c0-2.1,0.2-4.6-1.1-6.4C23.8,10,21.8,9.4,20,9.4c-3.4,0-6.4,1.7-7.1,5.3
			c-0.2,0.8-0.7,1.6-1.5,1.6l-8.5-0.9c-0.7-0.2-1.5-0.7-1.3-1.8C3.4,3.1,12.8,0,21.2,0c4.3,0,9.9,1.1,13.3,4.4
			c4.3,4,3.9,9.4,3.9,15.2v13.7c0,4.1,1.7,5.9,3.3,8.2c0.6,0.8,0.7,1.8,0,2.3C39.8,45.3,36.6,48.1,34.9,49.6L34.9,49.6z"/>
	</g>
</g>
</svg>
