<?xml version="1.0" encoding="utf-8"?>
<!-- Generator: Adobe Illustrator 21.1.0, SVG Export Plug-In . SVG Version: 6.00 Build 0)  -->
<!DOCTYPE svg PUBLIC "-//W3C//DTD SVG 1.1//EN" "http://www.w3.org/Graphics/SVG/1.1/DTD/svg11.dtd">
<svg version="1.1" id="Layer_1" xmlns="http://www.w3.org/2000/svg" xmlns:xlink="http://www.w3.org/1999/xlink" x="0px" y="0px"
	 viewBox="0 0 71.3 71.3" style="enable-background:new 0 0 71.3 71.3;" xml:space="preserve">
<style type="text/css">
	.st0{fill:#ED1C24;}
</style>
<path class="st0" d="M57.3,0H14C6.3,0,0,6.3,0,14v43.3c0,7.7,6.3,14,14,14h43.3c7.7,0,14-6.3,14-14V14C71.3,6.3,65,0,57.3,0z
	 M48.7,19h-5.5c-3.3,0-3.5,3.3-3.6,3.9v6h8.7l-1.3,9h-7.4v22.7h-9.3V37.8h-7.7v-9h7.7v-7.2v-2.2v-1.9c0-6.6,7.7-6.8,7.7-6.8h10.6
	L48.7,19L48.7,19z"/>
</svg>
