<?xml version="1.0" encoding="utf-8"?>
<!-- Generator: Adobe Illustrator 21.1.0, SVG Export Plug-In . SVG Version: 6.00 Build 0)  -->
<!DOCTYPE svg PUBLIC "-//W3C//DTD SVG 1.1//EN" "http://www.w3.org/Graphics/SVG/1.1/DTD/svg11.dtd">
<svg version="1.1" id="Layer_1" xmlns="http://www.w3.org/2000/svg" xmlns:xlink="http://www.w3.org/1999/xlink" x="0px" y="0px"
	 viewBox="0 0 71.3 71.3" style="enable-background:new 0 0 71.3 71.3;" xml:space="preserve">
<style type="text/css">
	.st0{fill:#ED1C24;}
</style>
<g>
	
		<ellipse transform="matrix(0.9995 -3.239384e-02 3.239384e-02 0.9995 -1.1346 1.1719)" class="st0" cx="35.6" cy="35.6" rx="7.7" ry="7.7"/>
	<path class="st0" d="M43.9,17.6H27.4c-5.4,0-9.8,4.4-9.8,9.8v16.5c0,5.4,4.4,9.8,9.8,9.8h16.5c5.4,0,9.8-4.4,9.8-9.8V27.4
		C53.7,22,49.3,17.6,43.9,17.6z M36,47.4c-6.5,0.2-11.9-4.9-12.1-11.4s4.9-11.9,11.4-12.1s11.9,4.9,12.1,11.4
		C47.6,41.7,42.5,47.2,36,47.4z M47.1,26.8c-1.6,0-3-1.3-3-3c0-1.6,1.3-3,3-3c1.6,0,3,1.3,3,3C50,25.4,48.7,26.8,47.1,26.8z"/>
	<path class="st0" d="M57.3,0H14C6.3,0,0,6.3,0,14v43.3c0,7.7,6.3,14,14,14h43.3c7.7,0,14-6.3,14-14V14C71.3,6.3,65,0,57.3,0z
		 M57.5,45.6c0,6.6-5.3,11.9-11.9,11.9h-20c-6.6,0-11.9-5.3-11.9-11.9v-20c0-6.6,5.3-11.9,11.9-11.9h20c6.6,0,11.9,5.3,11.9,11.9
		V45.6z"/>
</g>
</svg>
