<?xml version="1.0" encoding="utf-8"?>
<!-- Generator: Adobe Illustrator 20.0.0, SVG Export Plug-In . SVG Version: 6.00 Build 0)  -->
<svg version="1.1" id="Layer_1" xmlns="http://www.w3.org/2000/svg" xmlns:xlink="http://www.w3.org/1999/xlink" x="0px" y="0px"
	 viewBox="0 0 228.6 48.8" style="enable-background:new 0 0 228.6 48.8;" xml:space="preserve">
<style type="text/css">
	.st0{fill:#AEAEAE;}
</style>
<g>
	<path class="st0" d="M24.4,32.7c4.6,0,8.4-3.8,8.4-8.4c0-4.6-3.8-8.4-8.4-8.4c-4.6,0-8.4,3.8-8.4,8.4C16,28.9,19.8,32.7,24.4,32.7
		L24.4,32.7z M24.4,40.6c9,0,16.2-7.3,16.2-16.2c0-9-7.3-16.2-16.2-16.2c-9,0-16.2,7.3-16.2,16.2C8.2,33.4,15.5,40.6,24.4,40.6
		L24.4,40.6z M0,24.4C0,10.9,10.9,0,24.4,0c13.5,0,24.4,10.9,24.4,24.4c0,13.5-10.9,24.4-24.4,24.4C10.9,48.8,0,37.9,0,24.4L0,24.4z
		"/>
	<polygon class="st0" points="56.7,6.9 84.5,6.9 84.5,13.9 75,13.9 75,42 66.5,42 66.5,14 56.7,14 56.7,6.9 	"/>
	<path class="st0" d="M126.4,14h-7.8v7c0,0,6.1,0,7,0c2.4-0.1,4.3-1.1,4.3-3.5C130,14.8,128.4,14,126.4,14L126.4,14z M110.5,6.9
		c0,0,6.4,0,16.5,0c9.4,0,10.7,6.4,10.7,10.2c0,5.4-4.7,8.2-5.1,8.3c0,0,4.1,1.5,4.1,6.2v6.5c0,2.6,1.6,3.4,1.9,4h-6.7
		c-3.2-0.4-3.1-2.9-3.1-4.4V32c-0.1-1.4-0.5-2.9-3.4-3h-6.8v13h-8.1L110.5,6.9L110.5,6.9z"/>
	<polygon class="st0" points="173.6,6.9 173.6,42 198.9,42 198.9,34.8 181.8,34.8 181.8,27 196.4,27 196.4,20.3 181.8,20.3 
		181.8,14 198.9,14 198.9,6.9 173.6,6.9 	"/>
	<polygon class="st0" points="200.1,14 210.1,14 210.1,42 218.4,42 218.4,14 228.6,14 228.6,6.9 200.1,6.9 200.1,14 	"/>
	<path class="st0" d="M93.3,19.3l-3,9.1h6.2L93.3,19.3L93.3,19.3z M88.6,6.9h9L109.9,42h-8.7l-2.5-7.3H88.3L85.9,42h-8.7L88.6,6.9
		L88.6,6.9z"/>
	<path class="st0" d="M170.7,22.4h-15.1v6.8h7.2c0,1.4,0.2,2.8-1.5,4.8c-0.6,0.7-2.5,2.2-5.3,2.2c-2.3,0-4-0.7-5.4-1.9
		c-3.2-2.7-3.9-7.8-3.9-10.4c0-3.3,1.3-11.6,9.5-11.9c0,0,5.5-0.4,6.9,6.3h7.6c-0.2-3.4-4.1-12.8-14.5-12.8c-3.6,0-8.2,1.1-12,4.9
		c-2.8,2.8-5.2,7.4-5.2,13.9c0,7.1,2.6,11.7,5,14.2c4.2,4.4,8.4,4.8,10.6,4.8c1.7,0,5.1-0.3,9.4-3.2l1.1,2h5.7V22.4L170.7,22.4z"/>
	<path class="st0" d="M222.3,39.7h0.4c0.3,0,0.5,0,0.5-0.3c0-0.3-0.3-0.3-0.5-0.3h-0.4V39.7L222.3,39.7z M221.8,38.7h0.9
		c0.6,0,1,0.2,1,0.7c0,0.5-0.3,0.6-0.7,0.7l0.7,1.1h-0.5l-0.6-1.1h-0.3v1.1h-0.5V38.7L221.8,38.7z M222.7,41.7
		c0.9,0,1.7-0.7,1.7-1.7c0-1-0.8-1.7-1.7-1.7c-0.9,0-1.7,0.7-1.7,1.7C221,40.9,221.8,41.7,222.7,41.7L222.7,41.7z M222.7,37.7
		c1.2,0,2.3,0.9,2.3,2.2c0,1.4-1.1,2.2-2.3,2.2c-1.2,0-2.3-0.9-2.3-2.2C220.4,38.6,221.5,37.7,222.7,37.7L222.7,37.7z"/>
</g>
</svg>
