<?xml version="1.0" encoding="utf-8"?>
<!-- Generator: Adobe Illustrator 20.0.0, SVG Export Plug-In . SVG Version: 6.00 Build 0)  -->
<svg version="1.1" id="Isolation_Mode" xmlns="http://www.w3.org/2000/svg" xmlns:xlink="http://www.w3.org/1999/xlink" x="0px"
	 y="0px" viewBox="0 0 207.9 54.2" style="enable-background:new 0 0 207.9 54.2;" xml:space="preserve">
<style type="text/css">
	.st0{fill:#ADADAD;}
</style>
<g>
	<path class="st0" d="M146.7,5.6c-11.7-6-23.2-6.6-30.3-4.5c-13.2,4-17.3,20.8-5.1,29c0.7,0.5,0.3,1.5-0.7,3.2
		c-1.1,2.1-3.3,6.2-7,9.1c-2.3,1.8-3.7,2.5-1.9,4.7c0,0,4.1,4.6,7.2,6c3.7,1.6,4.6,1.3,7.4-1.2c1.7-1.6,5.2-6,9.3-13.1
		c2.1-3.7,5-3.7,4.6,2.3c0,0-0.6,5.8-0.7,7c-0.5,3.5-0.1,4.6,3,4.7c0,0,6.7-0.4,9-0.7c3.2-0.4,3.1-1,3.9-3.5
		c4.5-13.7,4.9-37.1,4.9-37.1C150.4,8.4,149.4,7.1,146.7,5.6 M138.1,18.3c0,0-4.1,2.8-4.2,2.9c-0.3,0.3-0.8,0.6-0.9,1.9
		c0,0.6-0.2,4.4-0.2,4.9c0,0.5-0.2,2-1.9,0.5c0,0-2.8-2.5-3.2-2.8c-0.1-0.1-1.1-1.2-2.6-0.5l-4.4,1.8c0,0-2.6,1.1-1.7-1.3
		c1-2.3,1.6-4.2,1.8-4.9c0.2-0.6,0.1-1.6-0.4-2.2c-0.2-0.3-2.4-3.1-2.8-3.8c0,0-1.7-2.1,1.2-1.9c0,0,4.9,0.1,5,0.1
		c0.1,0,1,0.1,1.7-1c0.8-1.3,3.2-4.3,2.7-3.6c0.4-0.5,1.4-1.8,2,0.3c0,0,0.9,2.9,1.3,4.1c0.3,0.8,0.5,1.4,1.9,1.8l4.5,1.6
		C138,16.2,140.2,16.9,138.1,18.3"/>
	<path class="st0" d="M51,23.8c-2.1-3.5-5.5-5.8-9.5-6.3c-5.2-0.7-10.2,1.4-13,5.5c-2.1,3-2.8,6.7-1.9,10.3
		c2.1,8.7,10.6,11.1,16,9.5c6-1.8,9.4-5.3,10.3-10.7C53.2,29.4,52.6,26.4,51,23.8 M36.4,35.5c-1.7-0.6-2.9-3.2-2.3-6.2
		c0.6-2.9,2.7-4.9,4.6-4.3c1.7,0.5,2.9,3.4,2.3,6.3C40.3,34.4,38.3,36.2,36.4,35.5"/>
	<path class="st0" d="M158.5,17.2c-0.5,0.7-4.3,6.6-4.8,15.5c-0.2,4,1.5,7.5,4.7,9.4c3.5,2.1,8,1.9,12.1-0.5
		c8.8-5.2,9.8-18.3,9.5-24.3c-0.1-1.4-0.9-2.2-2.2-2.2c-0.5,0-1.6,0-2.9,0.1c-1.3,0.1-2,1-2.1,2.4l0,0.4c-0.1,5.5-0.4,10.4-2.8,13.4
		c-1.6,2-3.4,2.8-4.7,2.3c-1.1-0.5-1.8-1.9-1.6-3.4c0.4-3.8,2-6.7,3-8.6l0.4-0.8c0.6-1.3,0.3-2.6-0.7-3.2c-0.6-0.3-1.9-0.8-3-1.2
		l-1.4-0.5C161.1,15.7,159.7,15.4,158.5,17.2z"/>
	<path class="st0" d="M189.4,13.4c-3.8,2-5.8,4.8-6.2,8.8c-0.6,5.3,6.7,9.1,8.4,10c2.1,1.1,2.2,2.4,1.6,3.2
		c-0.8,1.2-3.2,0.9-4.9,0.2c-1.9-0.8-2.9-1.7-4.4-3.5c-0.9-1.1-3.7,2-4.2,4.1c-0.2,1,0.2,1.4,0.8,2.3c1.5,2.2,6.4,6.2,13.5,6.7
		c2,0.1,7.1,0.3,10.5-2.9c1.4-1.3,2.9-3.4,3.4-6c0.4-1.8,0.3-4.1-1-6.2c-1.9-3-5.2-4.9-8.7-6.6c-5.2-2.5-4.2-3.9-3-4.6
		c1.1-0.6,4.8-0.2,7.7,2.6c1.5,1.4,4.5-3,3.3-4.4C201.4,11.6,193.6,11.1,189.4,13.4z"/>
	<path class="st0" d="M82,13.7c-2.9,9.4-15.3,31-20.2,33.1c-0.7,0.3-0.8,0.4-1.5,0.3c-2.6-0.4-5.8-3.7-6.8-4.9
		c-0.5-0.5-1.5-1.8-0.7-2.5c3-2.5,6.8-6.3,7-8.6c0-0.5-0.1-1-0.3-1.2c-0.3-0.4-8.2-11.1-8.9-12.3c-1.3-2-1.3-2.4,0.2-3.2
		c1.5-0.8,3.8-1.8,5.5-2.4c1.7-0.7,1.9-0.2,2.4,0.3l7.1,9.2c0.5,0.4,1,0.3,1.3-0.2c0.9-1.1,4.7-8.2,5.3-9.3c0.7-1.2,1.9-0.9,3-0.9
		c1.2,0,3.2,0,5.2,0.1C82.4,11.3,82.6,11.8,82,13.7z"/>
	<path class="st0" d="M85.6,16c-3.2,2-4.7,4.6-4.8,8.1c-0.1,4.7,6.2,7.8,7.7,8.5c1.9,0.8,2.2,1.8,1.8,2.6c-0.5,1.1-1.6,1.3-2.9,1
		c-2.4-0.5-4.3-2.7-6.1-3.8c-1.1-0.6-2.6,1.5-2.9,3.4c-0.1,0.9,0.2,1.3,0.8,2c1.8,1.6,5.4,5.3,12.6,5.6c1.7,0.1,6.2-0.3,8.9-3.3
		c1.1-1.2,2.3-2.9,2.6-5.1c0.2-1.6-0.2-3.5-1.3-5.3c-1-1.6-2.8-3.1-6-4.5c-5.1-2.2-3.5-4.4-2.3-4.8c1-0.4,2.9-0.1,5.9,1.8
		c1.6,1,3.8-3,2.5-4C95.3,13,89,13.7,85.6,16z"/>
	<path class="st0" d="M2.5,10.9c11.2-0.1,14.9-0.3,25-2c2.3-0.4,2.5,0.8,2.8,1.5c0.3,0.6,0.9,3.9,0.9,4.7c0,0.8,0.4,2-1,2.4
		C26,18.8,24.9,19.1,22,20c-1.3,0.4-1.2,1-1.2,2c0.2,5.7,2,13.3,3.3,17.5c0.5,1.8,0.8,3-0.4,3.5c-1.7,0.6-6.3,1.9-7.6,2.2
		c-2.2,0.5-2.5-1.2-2.7-2c-1.8-7.6-2.7-15.3-2.9-18.2c-0.1-1.5-0.6-2.9-1.9-2.8c-1.4,0-2.9,0.2-5.9,0.3c-1.6,0-2.4-0.1-2.7-1.5
		C-0.1,19.5,0,13.1,0.2,12C0.4,11,1.6,10.9,2.5,10.9z"/>
</g>
</svg>
