<?xml version="1.0" encoding="utf-8"?>
<!-- Generator: Adobe Illustrator 21.1.0, SVG Export Plug-In . SVG Version: 6.00 Build 0)  -->
<!DOCTYPE svg PUBLIC "-//W3C//DTD SVG 1.1//EN" "http://www.w3.org/Graphics/SVG/1.1/DTD/svg11.dtd">
<svg version="1.1" id="Layer_1" xmlns="http://www.w3.org/2000/svg" xmlns:xlink="http://www.w3.org/1999/xlink" x="0px" y="0px"
	 viewBox="0 0 71.3 71.3" style="enable-background:new 0 0 71.3 71.3;" xml:space="preserve">
<style type="text/css">
	.st0{fill:#ED1C24;}
</style>
<path class="st0" d="M57.3,0H14C6.3,0,0,6.3,0,14v43.3c0,7.7,6.3,14,14,14h43.3c7.7,0,14-6.3,14-14V14C71.3,6.3,65,0,57.3,0z
	 M58.5,22.1c-0.3,0.4-0.6,0.7-0.9,1c-0.9,0.8-1.8,1.7-2.7,2.5c-0.2,0.2-0.4,0.4-0.3,0.7c0.1,2.8-0.2,5.5-1,8.2
	c-1.2,4.2-3.2,8.1-6.2,11.4c-1.7,1.9-3.6,3.5-5.7,4.8c-2.7,1.7-5.7,2.9-8.9,3.5c-3.7,0.7-7.4,0.8-11.1,0.1c-2.9-0.5-5.7-1.6-8.3-3
	c-0.4-0.2-0.8-0.5-1.2-0.7c0,0,0,0-0.1-0.1c5.3,0.5,10-0.8,14.2-4c-2-0.1-3.9-0.8-5.5-2s-2.8-2.8-3.4-4.8c1.4,0.2,2.8,0.2,4.2-0.2
	c-2.2-0.6-4.1-1.7-5.5-3.5S14,32.2,14,29.8c1.4,0.7,2.7,1.1,4.3,1.2c-2.1-1.5-3.5-3.5-4-5.9c-0.6-2.5-0.2-4.8,1-7
	c5.3,6.2,11.9,9.6,20.1,10.2c-0.1-0.6-0.1-1.2-0.2-1.7c-0.1-3,0.9-5.6,3.1-7.7c2.4-2.2,5.3-3,8.6-2.4c1.9,0.4,3.5,1.2,4.8,2.6
	c0.2,0.2,0.4,0.3,0.7,0.2c1.8-0.4,3.6-1.1,5.3-2c0.1-0.1,0.2-0.1,0.4-0.2c0,0,0,0,0.1,0c-0.7,2.2-2.1,3.9-4,5.2
	c1.8-0.1,3.5-0.7,5.3-1.3C59,21.4,58.8,21.8,58.5,22.1z"/>
</svg>
