<?xml version="1.0" encoding="utf-8"?>
<!-- Generator: Adobe Illustrator 20.0.0, SVG Export Plug-In . SVG Version: 6.00 Build 0)  -->
<svg version="1.1" id="Layer_1" xmlns="http://www.w3.org/2000/svg" xmlns:xlink="http://www.w3.org/1999/xlink" x="0px" y="0px"
	 viewBox="0 0 661 143.1" style="enable-background:new 0 0 661 143.1;" xml:space="preserve">
<style type="text/css">
	.st0{fill-rule:evenodd;clip-rule:evenodd;fill:#AEAEAE;}
</style>
<path class="st0" d="M365.5,91c0,1.3-0.1,2.6-0.5,3.7c-1.4,4.7-6.3,8.7-12.4,8.7c-5.1,0-9.2-2.9-9.2-9c0-9.4,10.3-11.9,22-11.9V91
	L365.5,91z M383.9,74.7c0-15.4-6.6-29-28.9-29c-11.4,0-20.5,3.2-25.5,6.1l3.6,12.4c4.5-2.9,11.8-5.2,18.6-5.2
	c11.3,0,13.1,6.4,13.1,10.5v1c-24.6,0-40.2,8.5-40.2,25.9c0,10.6,7.9,20.6,21.7,20.6c8.5,0,15.6-3.4,19.8-8.8h0.4
	c0,0,2.8,11.8,18.3,7.3c-0.8-4.9-1.1-10.1-1.1-16.4V74.7L383.9,74.7z"/>
<path class="st0" d="M0,24.6c0,0,16.1,66,18.7,76.7c3,12.5,8.4,17.1,24,14l10.1-40.9C55.3,64.2,57,57,58.6,46.7h0.3
	c1.2,10.4,2.8,17.6,4.9,27.8c0,0,4.1,18.6,6.2,28.3c2.1,9.7,7.9,15.9,23.2,12.6l24-90.7H97.8l-8.2,39.2c-2.2,11.4-4.2,20.3-5.7,30.8
	h-0.3c-1.4-10.3-3.2-18.9-5.4-30l-8.5-40H49.5l-9.1,38.9c-2.6,11.8-5,21.4-6.5,31.5h-0.3c-1.6-9.5-3.7-21.5-5.9-33
	c0,0-5.4-27.9-7.3-37.5H0L0,24.6z"/>
<path class="st0" d="M153.7,91c0,1.3-0.1,2.6-0.5,3.7c-1.4,4.7-6.3,8.7-12.4,8.7c-5.1,0-9.1-2.9-9.1-9c0-9.4,10.3-11.9,22-11.9V91
	L153.7,91z M172.1,74.7c0-15.4-6.6-29-28.9-29c-11.4,0-20.5,3.2-25.5,6.1l3.6,12.4c4.5-2.9,11.7-5.2,18.6-5.2
	c11.3,0,13.2,6.4,13.2,10.5v1c-24.6,0-40.2,8.5-40.2,25.9c0,10.6,7.9,20.6,21.7,20.6c8.5,0,15.6-3.4,19.8-8.8h0.4
	c0,0,2.8,11.8,18.3,7.3c-0.8-4.9-1.1-10.1-1.1-16.4V74.7L172.1,74.7z"/>
<polygon class="st0" points="202.8,96.1 202.8,24.6 184.4,24.6 184.4,115.3 202.8,115.3 202.8,96.1 "/>
<path class="st0" d="M443.7,24.6v66.9c0,9.2,1.7,15.7,5.4,19.6c3.2,3.4,8.6,5.7,15,5.7c5.5,0,10.8-1,13.3-2l-0.2-14.4
	c-1.9,0.5-4,0.8-7,0.8c-6.3,0-8.4-4-8.4-12.3V63.4h16V46.1h-16V24.6H443.7L443.7,24.6z"/>
<path class="st0" d="M396.2,47.2v68.1h19V80.4c0-1.9,0.1-3.5,0.4-5c1.4-7.3,7-12,15-12c2.2,0,3.8,0.2,5.5,0.5V46.1
	c-1.4-0.3-2.4-0.4-4.2-0.4c-7.1,0-15.1,4.6-18.5,14.4h-0.5V47.2H396.2L396.2,47.2z"/>
<path class="st0" d="M215.7,47.2v68.1h18.5v-40c0-1.9,0.2-3.9,0.9-5.6c1.5-4,5.3-8.7,11.2-8.7c7.5,0,11,6.3,11,15.4v38.8h18.5V74.9
	c0-1.8,0.2-3.9,0.8-5.5c1.5-4.6,5.6-8.3,11.1-8.3c7.6,0,11.2,6.2,11.2,16.9v37.3h18.5V75.2c0-21.2-10.8-29.5-22.9-29.5
	c-5.4,0-9.6,1.4-13.4,3.7c-3.2,2-6.1,4.8-8.6,8.5h-0.3c-2.9-7.3-9.8-12.2-18.8-12.2c-11.5,0-16.7,5.8-19.8,10.8h-0.3v-9.3H215.7
	L215.7,47.2z"/>
<path class="st0" d="M581.1,48.2c3.3,0,6.1-1.7,6.5-4l3.3-37.5c0-3.7-4.3-6.7-9.8-6.7c-5.4,0-9.8,3-9.8,6.7l3.3,37.5
	C575,46.4,577.8,48.2,581.1,48.2L581.1,48.2L581.1,48.2z"/>
<path class="st0" d="M560.9,59.9c1.7-2.9,1.5-6.2-0.2-7.6l-30.8-21.6c-3.2-1.8-8,0.4-10.7,5.1c-2.7,4.7-2.3,10,0.9,11.8l34.1,15.9
	C556.3,64.3,559.2,62.8,560.9,59.9L560.9,59.9L560.9,59.9z"/>
<path class="st0" d="M601.4,59.9c1.7,2.9,4.6,4.4,6.7,3.6l34.1-15.9c3.2-1.9,3.7-7.1,0.9-11.8c-2.7-4.7-7.5-7-10.7-5.1l-30.8,21.6
	C599.9,53.7,599.7,57,601.4,59.9L601.4,59.9L601.4,59.9z"/>
<path class="st0" d="M581.1,95c3.3,0,6.1,1.7,6.5,4l3.3,37.5c0,3.7-4.3,6.7-9.8,6.7c-5.4,0-9.8-3-9.8-6.7l3.3-37.5
	C575,96.7,577.8,95,581.1,95L581.1,95L581.1,95z"/>
<path class="st0" d="M601.4,83.3c1.7-2.9,4.6-4.4,6.7-3.6l34.1,15.9c3.2,1.9,3.7,7.1,0.9,11.8c-2.7,4.7-7.5,7-10.7,5.1l-30.8-21.6
	C599.9,89.4,599.7,86.2,601.4,83.3L601.4,83.3L601.4,83.3z"/>
<path class="st0" d="M560.9,83.3c1.7,2.9,1.5,6.2-0.2,7.6l-30.8,21.6c-3.2,1.8-8-0.4-10.7-5.1c-2.7-4.7-2.3-10,0.9-11.9l34.1-15.9
	C556.3,78.9,559.2,80.4,560.9,83.3L560.9,83.3L560.9,83.3z"/>
<path class="st0" d="M645.3,118.6c0.3,0.2,0.9,0.4,1.4,0.4c0.7,0,1.1-0.3,1.1-0.8c0-0.5-0.3-0.7-1-1c-1-0.4-1.6-0.9-1.6-1.7
	c0-1,0.8-1.7,2.1-1.7c0.6,0,1.1,0.1,1.4,0.3l-0.3,0.9c-0.2-0.1-0.6-0.3-1.2-0.3c-0.7,0-1,0.4-1,0.7c0,0.5,0.3,0.7,1.1,1
	c1,0.4,1.5,0.9,1.5,1.7c0,0.9-0.7,1.7-2.2,1.7c-0.6,0-1.3-0.2-1.6-0.4L645.3,118.6L645.3,118.6z"/>
<path class="st0" d="M654.7,117.4c0-0.7-0.1-1.6-0.1-2.4h0c-0.2,0.7-0.4,1.5-0.7,2.2l-0.8,2.5h-0.8l-0.8-2.5
	c-0.2-0.7-0.4-1.5-0.6-2.3h0c0,0.8-0.1,1.7-0.1,2.5l-0.1,2.3h-1l0.4-5.8h1.4l0.8,2.3c0.2,0.7,0.4,1.4,0.5,2h0c0.1-0.6,0.4-1.4,0.6-2
	l0.8-2.3h1.4l0.3,5.8h-1L654.7,117.4L654.7,117.4z"/>
</svg>
